<svg xmlns="http://www.w3.org/2000/svg" width="800" height="600"><defs><marker orient="auto" refY="0" refX="0" id="a" overflow="visible"><path d="M-10 0l-4 4L0 0l-14-4 4 4z" fill-rule="evenodd" stroke="#000" stroke-width=".8pt"/></marker></defs><path d="M493.36 349.263a225.714 221.071 0 11-451.429 0 225.714 221.071 0 11451.429 0z" fill="red" stroke="#000" stroke-width="2"/><path d="M475.277 715.345l138.785-62.872" fill="none" stroke="red" stroke-width=".922" marker-end="url(#a)" transform="translate(0 -452.362)"/><path d="M518.713 25.728l-4.964-1.908-1.392 5.133-2.162-4.86-4.614 2.645 1.908-4.964-5.132-1.392 4.86-2.161-2.646-4.615 4.965 1.909 1.392-5.133 2.161 4.86 4.614-2.646-1.908 4.965 5.133 1.392-4.86 2.161z" fill="#ff0" stroke="#000" stroke-width="2"/><path d="M475.782 262.104l34.345-237.891" fill="none" stroke="#000" stroke-dasharray="1,1"/><path d="M475.257 714.485l15.696-104.589" fill="none" stroke="#000" stroke-width=".961" marker-end="url(#a)" transform="translate(0 -452.362)"/><path d="M474.772 261.599l111.622 243.447" fill="none" stroke="#000" stroke-dasharray="1,1"/><path d="M574.797 524.89l41.376 30.643-5.55-51.982" fill="none" stroke="#000" stroke-width="1.04"/><path d="M580.838 529.29s3.03-29.295 29.8-16.668" fill="none" stroke="#000"/><path d="M604.071 519.188a9.091 8.586 0 11-18.182 0 9.091 8.586 0 1118.182 0z" fill="#00f" stroke="#000"/><path d="M595.485 514.895a3.283 3.283 0 11-6.566 0 3.283 3.283 0 116.566 0z" stroke="#000"/><path d="M475.277 262.61l46.467 102.024" fill="none" stroke="#000" marker-end="url(#a)"/><text style="line-height:125%" x="512.147" y="787.197" font-size="15" font-weight="400" letter-spacing="0" word-spacing="0" font-family="Sans" transform="translate(0 -452.362)"><tspan x="512.147" y="787.197">w<tspan font-size="10">o</tspan></tspan></text><text style="line-height:125%" x="460.988" y="644.756" font-size="15" font-weight="400" letter-spacing="0" word-spacing="0" font-family="Sans" transform="translate(0 -452.362)"><tspan x="460.988" y="644.756">w<tspan font-size="10">i</tspan></tspan></text><text style="line-height:125%" x="634.881" y="979.631" font-size="25" font-weight="400" letter-spacing="0" word-spacing="0" font-family="Sans" transform="translate(0 -452.362)"><tspan x="634.881" y="979.631">caméra</tspan></text><text style="line-height:125%" x="597" y="643.25" font-size="25" font-weight="400" letter-spacing="0" word-spacing="0" font-family="Sans" transform="translate(0 -452.362)"><tspan x="597" y="643.25">N</tspan></text><path d="M475.782 716.486l156.932-22.223" fill="none" stroke="#000" stroke-width="1.05" marker-end="url(#a)" transform="translate(0 -452.362)"/><text style="line-height:125%" x="551.746" y="723.113" font-size="15" font-weight="400" letter-spacing="0" word-spacing="0" font-family="Sans" transform="translate(0 -452.362)"><tspan x="551.746" y="723.113">halfVector</tspan></text></svg>