<svg xmlns="http://www.w3.org/2000/svg" width="1600" height="600"><defs><marker orient="auto" refY="0" refX="0" id="a" overflow="visible"><path d="M-10 0l-4 4L0 0l-14-4 4 4z" fill-rule="evenodd" stroke="#000" stroke-width=".8pt"/></marker></defs><path fill="#deaa87" stroke="#000" stroke-width="2.003" d="M989.478 87.143h581.95v411.429h-581.95z"/><path fill="#ffe680" stroke="#000" stroke-width="2.215" d="M191.429 87.143h701.05v411.726h-701.05z"/><path d="M63.315 254.387a10.607 10.607 0 1 1-21.214 0 10.607 10.607 0 1 1 21.214 0z" fill="#00f" stroke="#000" stroke-width="2"/><text style="line-height:125%" x="19.878" y="682" font-size="40" font-weight="400" letter-spacing="0" word-spacing="0" font-family="Sans" transform="translate(0 -452.362)"><tspan x="19.878" y="682" font-size="20">vertex</tspan></text><path d="M63.315 707.254h144.224" fill="none" stroke="#000" stroke-width="2" marker-end="url(#a)" transform="translate(0 -452.362)"/><path fill="none" stroke="#000" stroke-width="2" d="M208.777 217.516h136.371v70.71H208.777z"/><text style="text-align:center;line-height:125%" x="271.297" y="701.193" font-size="40" font-weight="400" letter-spacing="0" word-spacing="0" text-anchor="middle" font-family="Sans" transform="translate(0 -452.362)"><tspan x="271.297" y="701.193" style="text-align:center" font-size="20">Model</tspan><tspan x="271.297" y="726.193" style="text-align:center" font-size="20">Matrix</tspan></text><path d="M344.137 708.264h131.32" fill="none" stroke="#000" stroke-width="2" marker-end="url(#a)" transform="translate(0 -452.362)"/><path fill="none" stroke="#000" stroke-width="2" d="M476.972 217.516h136.371v70.71H476.972z"/><text style="text-align:center;line-height:125%" x="541.406" y="699.173" font-size="40" font-weight="400" letter-spacing="0" word-spacing="0" text-anchor="middle" font-family="Sans" transform="translate(0 -452.362)"><tspan x="541.406" y="699.173" style="text-align:center" font-size="20">View</tspan><tspan x="541.406" y="724.173" style="text-align:center" font-size="20">Matrix</tspan></text><path d="M614.858 709.274h131.32" fill="none" stroke="#000" stroke-width="2" marker-end="url(#a)" transform="translate(0 -452.362)"/><path fill="none" stroke="#000" stroke-width="2" d="M747.693 218.526h136.371v70.71H747.693z"/><text style="text-align:center;line-height:125%" x="815.528" y="702.203" font-size="40" font-weight="400" letter-spacing="0" word-spacing="0" text-anchor="middle" font-family="Sans" transform="translate(0 -452.362)"><tspan x="815.528" y="702.203" style="text-align:center" font-size="20">Projection</tspan><tspan x="815.528" y="727.203" style="text-align:center" font-size="20">Matrix</tspan></text><text style="line-height:125%" x="133.952" y="726.447" font-size="40" font-weight="400" letter-spacing="0" word-spacing="0" font-family="Sans" transform="translate(0 -452.362)"><tspan x="136.34" y="726.447" style="text-align:center" font-size="15" text-anchor="middle">model </tspan><tspan x="133.952" y="745.197" style="text-align:center" font-size="15" text-anchor="middle">coordinates</tspan></text><text style="line-height:125%" x="406.723" y="728.725" font-size="40" font-weight="400" letter-spacing="0" word-spacing="0" font-family="Sans" transform="translate(0 -452.362)"><tspan x="409.11" y="728.725" style="text-align:center" font-size="15" text-anchor="middle">world </tspan><tspan x="406.723" y="747.475" style="text-align:center" font-size="15" text-anchor="middle">coordinates</tspan></text><text style="line-height:125%" x="677.443" y="730.745" font-size="40" font-weight="400" letter-spacing="0" word-spacing="0" font-family="Sans" transform="translate(0 -452.362)"><tspan x="679.831" y="730.745" style="text-align:center" font-size="15" text-anchor="middle">view </tspan><tspan x="677.443" y="749.495" style="text-align:center" font-size="15" text-anchor="middle">coordinates</tspan></text><path d="M885.579 710.285h131.32" fill="none" stroke="#000" stroke-width="2" marker-end="url(#a)" transform="translate(0 -452.362)"/><path fill="none" stroke="#000" stroke-width="2" d="M1016.394 217.516h136.371v70.71h-136.371z"/><text style="text-align:center;line-height:125%" x="1084.228" y="701.193" font-size="40" font-weight="400" letter-spacing="0" word-spacing="0" text-anchor="middle" font-family="Sans" transform="translate(0 -452.362)"><tspan x="1084.228" y="701.193" style="text-align:center" font-size="20">Division par</tspan><tspan x="1084.228" y="726.193" style="text-align:center" font-size="20">w</tspan></text><text style="line-height:125%" x="941.368" y="732.174" font-size="40" font-weight="400" letter-spacing="0" word-spacing="0" font-family="Sans" transform="translate(0 -452.362)"><tspan x="943.756" y="732.174" style="text-align:center" font-size="15" text-anchor="middle">clip </tspan><tspan x="941.368" y="750.924" style="text-align:center" font-size="15" text-anchor="middle">coordinates</tspan></text><path d="M1152.911 710.934h131.32" fill="none" stroke="#000" stroke-width="2" marker-end="url(#a)" transform="translate(0 -452.362)"/><path fill="none" stroke="#000" stroke-width="2" d="M1284.672 217.502h136.371v70.71h-136.371z"/><text style="text-align:center;line-height:125%" x="1352.507" y="701.179" font-size="40" font-weight="400" letter-spacing="0" word-spacing="0" text-anchor="middle" font-family="Sans" transform="translate(0 -452.362)"><tspan x="1352.507" y="701.179" style="text-align:center" font-size="20">Viewport</tspan><tspan x="1352.507" y="726.179" style="text-align:center" font-size="20">Transform</tspan></text><text style="line-height:125%" x="1219.956" y="734.294" font-size="40" font-weight="400" letter-spacing="0" word-spacing="0" font-family="Sans" transform="translate(0 -452.362)"><tspan x="1219.956" y="734.294" style="text-align:center" font-size="15" text-anchor="middle">normalized</tspan><tspan x="1219.956" y="753.044" style="text-align:center" font-size="15" text-anchor="middle">device</tspan><tspan x="1219.956" y="771.794" style="text-align:center" font-size="15" text-anchor="middle">coordinates</tspan></text><path d="M1422.911 709.505h131.32" fill="none" stroke="#000" stroke-width="2" marker-end="url(#a)" transform="translate(0 -452.362)"/><text style="line-height:125%" x="1484.242" y="740.633" font-size="40" font-weight="400" letter-spacing="0" word-spacing="0" font-family="Sans" transform="translate(0 -452.362)"><tspan x="1486.63" y="740.633" style="text-align:center" font-size="15" text-anchor="middle">window </tspan><tspan x="1484.242" y="759.383" style="text-align:center" font-size="15" text-anchor="middle">coordinates</tspan></text><text style="line-height:125%" x="212.857" y="590.934" font-size="40" font-weight="400" letter-spacing="0" word-spacing="0" font-family="Sans" transform="translate(0 -452.362)"><tspan x="212.857" y="590.934">Vertex Shader</tspan></text><path fill="none" stroke="#000" stroke-width="2" d="M482.023 385.202h136.371v70.71H482.023z"/><text style="text-align:center;line-height:125%" x="548.544" y="865.855" font-size="40" font-weight="400" letter-spacing="0" word-spacing="0" text-anchor="middle" font-family="Sans" transform="translate(0 -452.362)"><tspan x="548.544" y="865.855" style="text-align:center" font-size="20">MVP</tspan><tspan x="548.544" y="890.855" style="text-align:center" font-size="20">Matrix</tspan></text><path d="M300.713 287.23l246.452 97.959" fill="none" stroke="#000" stroke-width="1.025"/><path d="M545.157 287.217v96.974" fill="none" stroke="#000"/><path d="M811.846 289.229l-267.707 95.98" fill="none" stroke="#000" stroke-width=".984"/><text style="line-height:125%" x="1008.301" y="590.131" font-size="40" font-weight="400" letter-spacing="0" word-spacing="0" font-family="Sans" transform="translate(0 -452.362)"><tspan x="1008.301" y="590.131">Fait par le GPU en interne</tspan></text><text style="line-height:125%" x="941.385" y="697.151" font-size="40" font-weight="400" letter-spacing="0" word-spacing="0" font-family="Sans" transform="translate(0 -452.362)"><tspan x="941.385" y="697.151" style="text-align:center;-inkscape-font-specification:Sans Bold" font-size="15" font-weight="700" text-anchor="middle">gl_Position</tspan></text></svg>