<svg xmlns="http://www.w3.org/2000/svg" width="1200" height="500" viewBox="0 0 1200 500"><g fill="#5586A4"><path d="M182.039 212.314c3.851-11.769 9.633-22.192 17.334-31.26 7.701-9.067 17.29-16.309 28.753-21.711 11.464-5.404 24.814-8.111 40.046-8.111 15.226 0 28.577 2.708 40.04 8.111 11.463 5.402 21.052 12.644 28.753 21.711 7.701 9.067 13.483 19.491 17.333 31.26 3.851 11.768 5.782 24.018 5.782 36.749s-1.931 24.986-5.782 36.754c-3.85 11.769-9.632 22.192-17.333 31.261-7.701 9.066-17.29 16.264-28.753 21.581-11.463 5.311-24.814 7.976-40.04 7.976-15.231 0-28.582-2.664-40.046-7.976-11.463-5.317-21.052-12.515-28.753-21.581-7.701-9.068-13.483-19.492-17.334-31.261-3.851-11.768-5.776-24.023-5.776-36.754s1.926-24.981 5.776-36.749zm23.438 64.702c2.513 9.165 6.459 17.412 11.842 24.741 5.379 7.332 12.284 13.223 20.718 17.677 8.427 4.452 18.47 6.673 30.135 6.673 11.66 0 21.702-2.221 30.136-6.673 8.427-4.454 15.333-10.345 20.717-17.677 5.378-7.329 9.323-15.576 11.835-24.741 2.512-9.166 3.769-18.461 3.769-27.886s-1.257-18.713-3.769-27.879c-2.512-9.166-6.458-17.412-11.835-24.747-5.385-7.328-12.29-13.218-20.717-17.671-8.434-4.453-18.477-6.68-30.136-6.68-11.665 0-21.707 2.227-30.135 6.68-8.434 4.454-15.339 10.344-20.718 17.671-5.384 7.335-9.329 15.581-11.842 24.747-2.512 9.165-3.762 18.454-3.762 27.879s1.25 18.72 3.762 27.886zm192.463-53.538v16.135h.404c3.296-6.606 8.478-11.411 15.548-14.409 7.07-2.997 14.84-4.496 23.324-4.496 9.419 0 17.625 1.69 24.618 5.07 6.988 3.38 12.795 7.945 17.429 13.699 4.633 5.761 8.124 12.398 10.485 19.918 2.355 7.523 3.535 15.506 3.535 23.949 0 8.444-1.143 16.426-3.416 23.951-2.279 7.523-5.731 14.087-10.365 19.688-4.633 5.601-10.447 10.017-17.435 13.236-6.995 3.221-15.118 4.835-24.385 4.835-2.986 0-6.325-.307-10.012-.919a57.027 57.027 0 01-10.952-2.996c-3.61-1.382-7.032-3.271-10.251-5.65-3.219-2.381-5.927-5.335-8.124-8.876h-.404v61.471h-20.2V223.478h20.201zm71.697 42.337c-1.49-5.292-3.755-10.011-6.81-14.156-3.056-4.144-6.975-7.444-11.754-9.898-4.785-2.455-10.383-3.683-16.803-3.683-6.742 0-12.46 1.308-17.157 3.917-4.703 2.609-8.54 6.02-11.52 10.239-2.979 4.219-5.132 9.018-6.464 14.391a67.63 67.63 0 00-1.995 16.338c0 5.835.7 11.474 2.115 16.919 1.407 5.454 3.642 10.245 6.698 14.391 3.054 4.145 7.006 7.482 11.867 10.012 4.86 2.533 10.738 3.798 17.63 3.798 6.893 0 12.65-1.301 17.271-3.91s8.346-6.062 11.167-10.362c2.816-4.293 4.854-9.202 6.11-14.729a76.967 76.967 0 001.881-17.036 59.78 59.78 0 00-2.236-16.231zm126.673 69.118c-9.129 6.748-20.61 10.121-34.461 10.121-9.759 0-18.224-1.534-25.382-4.6-7.165-3.071-13.186-7.371-18.066-12.898-4.879-5.526-8.54-12.125-10.977-19.804-2.436-7.675-3.812-16.045-4.128-25.099 0-9.055 1.414-17.344 4.254-24.87 2.834-7.524 6.811-14.05 11.931-19.577 5.119-5.527 11.185-9.819 18.192-12.891 7.007-3.071 14.689-4.607 23.041-4.607 10.87 0 19.884 2.195 27.054 6.575 7.172 4.385 12.922 9.961 17.252 16.728 4.331 6.772 7.329 14.155 8.983 22.148 1.654 8 2.323 15.612 2.008 22.841h-91.303c-.158 5.212.467 10.153 1.881 14.828 1.414 4.675 3.687 8.814 6.83 12.417 3.144 3.601 7.146 6.469 12.019 8.615 4.867 2.147 10.599 3.22 17.195 3.22 8.477 0 15.428-1.917 20.844-5.761 5.416-3.843 8.988-9.683 10.718-17.529h19.821c-2.677 13.348-8.578 23.395-17.706 30.143zm-4.894-76.403c-1.803-4.133-4.234-7.698-7.289-10.683-3.062-2.985-6.672-5.36-10.827-7.124-4.16-1.764-8.749-2.646-13.767-2.646-5.176 0-9.847.882-14.001 2.646-4.16 1.764-7.726 4.176-10.706 7.235-2.98 3.065-5.334 6.631-7.058 10.689-1.729 4.059-2.746 8.388-3.061 12.983H594.6c-.317-4.595-1.377-8.962-3.184-13.1zm56.971-35.052v18.905h.379c8.369-14.446 21.645-21.675 39.818-21.675 8.055 0 14.769 1.079 20.148 3.232 5.371 2.153 9.715 5.15 13.035 8.994 3.32 3.842 5.65 8.413 6.994 13.717 1.338 5.305 2.014 11.184 2.014 17.641v78.395h-20.199V262.04c0-7.371-2.211-13.206-6.623-17.511-4.418-4.3-10.484-6.453-18.205-6.453-6.146 0-11.469.926-15.963 2.77-4.494 1.845-8.238 4.453-11.23 7.833-2.99 3.38-5.238 7.334-6.734 11.861-1.502 4.533-2.248 9.486-2.248 14.865v67.279h-20.199V223.478h19.013zm222.025 117.913c-9.121 3.757-18.332 5.639-27.623 5.639-14.67 0-27.857-2.5-39.572-7.483-11.717-4.989-21.594-11.86-29.643-20.619-8.049-8.752-14.217-19.04-18.51-30.858-4.291-11.817-6.437-24.561-6.437-38.217 0-14.001 2.141-27.004 6.42-39 4.281-11.991 10.434-22.451 18.463-31.383 8.031-8.932 17.897-15.932 29.605-21.015 11.709-5.076 24.896-7.617 39.566-7.617 9.834 0 19.354 1.449 28.562 4.343 9.211 2.898 17.525 7.154 24.949 12.767 7.422 5.613 13.545 12.533 18.373 20.755 4.83 8.228 7.785 17.665 8.857 28.323h-40.234c-2.506-10.479-7.336-18.344-14.488-23.586-7.158-5.243-15.83-7.864-26.02-7.864-9.48 0-17.529 1.794-24.144 5.384-6.615 3.59-11.982 8.408-16.098 14.446-4.115 6.044-7.107 12.915-8.98 20.619-1.883 7.704-2.816 15.667-2.816 23.895 0 7.883.939 15.543 2.82 22.982 1.883 7.438 4.881 14.136 8.996 20.089 4.115 5.951 9.488 10.719 16.115 14.309 6.623 3.59 14.682 5.385 24.178 5.385 13.963 0 24.744-3.44 32.355-10.325 7.613-6.883 12.045-16.863 13.301-29.939h-42.381V241.63h80.357v101.199h-26.738l-4.281-21.23c-7.511 9.436-15.831 16.036-24.952 19.792zm124.266-185.817v152.374h93.354v34.737h-135.37V155.574h42.016z"/><path d="M795.977 365.945c-64.285 38.205-160.568 59.951-267.996 59.951-193.548 0-350.451-78.75-350.451-175.897S334.433 74.102 527.981 74.102c107.822 0 204.496 22.149 268.783 60.593C726.594 70.282 600.779 25.022 456.926 25 236.608 24.965 57.988 125.675 57.969 249.938 57.95 374.199 236.537 474.97 456.856 475c143.281.024 268.769-45.092 339.121-109.055z"/></g><path fill="#5586A4" d="M1143.848 325.427c0 3.141-.786 6.067-2.356 8.779a17.245 17.245 0 01-6.423 6.412 17.288 17.288 0 01-8.779 2.345c-3.126 0-6.045-.781-8.757-2.345a17.248 17.248 0 01-6.424-6.412 17.219 17.219 0 01-2.355-8.779c0-3.126.784-6.048 2.355-8.769a17.236 17.236 0 016.424-6.424 17.255 17.255 0 018.757-2.344c3.141 0 6.067.781 8.779 2.344a17.233 17.233 0 016.423 6.424c1.57 2.721 2.356 5.643 2.356 8.769zm-3.402 0c0-3.907-1.383-7.244-4.148-10.01-2.767-2.766-6.103-4.148-10.009-4.148-3.907 0-7.244 1.383-10.01 4.148-2.766 2.766-4.148 6.103-4.148 10.01s1.383 7.243 4.148 10.009c2.766 2.766 6.103 4.148 10.01 4.148 3.906 0 7.242-1.383 10.009-4.148 2.765-2.766 4.148-6.102 4.148-10.009zm-22.11-9.377h8.39c2.374 0 4.095.478 5.159 1.436 1.064.957 1.598 2.24 1.598 3.85 0 1.256-.406 2.344-1.218 3.264-.812.919-2.092 1.586-3.839 1.999.72.276 1.249.567 1.586.873.475.43.973 1.065 1.494 1.908.03.061 1.041 1.87 3.034 5.424h-5.517c-1.792-3.569-2.995-5.704-3.607-6.401-.614-.696-1.227-1.046-1.84-1.046-.138 0-.33.023-.574.069v7.378h-4.666V316.05zm4.666 7.951h2.022c1.348 0 2.299-.218 2.851-.654.551-.438.827-1 .827-1.69 0-.689-.265-1.253-.793-1.689-.529-.437-1.43-.654-2.701-.654h-2.206v4.687z"/></svg>