<svg xmlns="http://www.w3.org/2000/svg" width="210mm" height="297mm"><defs><marker orient="auto" refY="0" refX="0" id="a" overflow="visible"><path d="M-10 0l-4 4L0 0l-14-4 4 4z" fill-rule="evenodd" stroke="#000" stroke-width=".8pt"/></marker><marker orient="auto" refY="0" refX="0" id="b" overflow="visible"><path d="M-10 0l-4 4L0 0l-14-4 4 4z" fill-rule="evenodd" stroke="#000" stroke-width=".8pt"/></marker></defs><text style="text-align:center;line-height:125%" x="88.778" y="306.024" font-size="20.273" font-weight="400" letter-spacing="0" word-spacing="0" text-anchor="middle" font-family="Sans"><tspan x="92.005" y="306.024">vertexShader </tspan><tspan x="88.778" y="331.364">(GLuint)</tspan></text><text style="text-align:center;line-height:125%" x="85.936" y="448.238" font-size="19.412" font-weight="400" letter-spacing="0" word-spacing="0" text-anchor="middle" font-family="Sans"><tspan x="89.026" y="448.238">fragmentShader </tspan><tspan x="85.936" y="472.504">(GLuint)</tspan></text><text style="line-height:125%" x="237.095" y="52.012" transform="scale(.9254 1.08062)" font-size="24.462" font-weight="400" letter-spacing="0" word-spacing="0" font-family="Sans"><tspan x="237.095" y="52.012">glCreateProgram()</tspan></text><path d="M307.538 78.936v98.636" fill="none" stroke="#000" stroke-width="2.027" marker-end="url(#a)"/><text style="line-height:125%" x="242.384" y="228.164" font-size="40" font-weight="400" letter-spacing="0" word-spacing="0" font-family="Sans"><tspan x="242.384" y="228.164">GLuint</tspan></text><text style="text-align:center;line-height:125%" x="563.355" y="204.848" font-size="28.021" font-weight="400" letter-spacing="0" word-spacing="0" text-anchor="middle" fill="red" font-family="Sans"><tspan x="567.815" y="204.848">identifiant OpenGL </tspan><tspan x="563.355" y="239.875">du programme</tspan></text><path d="M305.066 252.501v346.783" fill="none" stroke="#000" stroke-width="3.525" marker-end="url(#a)"/><path d="M174.756 305.86h126.769" fill="none" stroke="#000" stroke-width="1.417" marker-end="url(#b)"/><path d="M174.251 443.24h131.705" fill="none" stroke="#000" stroke-width="1.485" marker-end="url(#b)"/><text style="line-height:125%" x="179.114" y="316.234" transform="scale(.9254 1.08062)" font-size="18.667" font-weight="400" letter-spacing="0" word-spacing="0" font-family="Sans"><tspan x="179.114" y="316.234">glAttachShader</tspan></text><text style="line-height:125%" x="178.627" y="442.43" transform="scale(.9254 1.08062)" font-size="18.667" font-weight="400" letter-spacing="0" word-spacing="0" font-family="Sans"><tspan x="178.627" y="442.43">glAttachShader</tspan></text><text style="line-height:125%" x="225.519" y="597.474" transform="scale(.9254 1.08062)" font-size="28.337" font-weight="400" letter-spacing="0" word-spacing="0" font-family="Sans"><tspan x="225.519" y="597.474">glLinkProgram</tspan></text><path d="M303.036 663.969v131.3" fill="none" stroke="#000" stroke-width="2.698" marker-end="url(#a)"/><text style="line-height:125%" x="184.645" y="784.426" transform="scale(.9254 1.08062)" font-size="28.337" font-weight="400" letter-spacing="0" word-spacing="0" font-family="Sans"><tspan x="184.645" y="784.426">glGetProgramInfoLog</tspan></text><text style="text-align:center;line-height:125%" x="605.352" y="831.126" font-size="27.665" font-weight="400" letter-spacing="0" word-spacing="0" text-anchor="middle" fill="red" font-family="Sans"><tspan x="609.755" y="831.126">vérification des </tspan><tspan x="605.352" y="865.707">erreurs de link</tspan></text><text style="text-align:center;line-height:125%" x="521.837" y="340.853" font-size="27.665" font-weight="400" letter-spacing="0" word-spacing="0" text-anchor="middle" fill="red" font-family="Sans"><tspan x="526.241" y="340.853">spécification des shaders </tspan><tspan x="526.241" y="375.433">à linker </tspan><tspan x="526.241" y="410.014">(ils doivent avoir été </tspan><tspan x="521.837" y="444.595">compilés)</tspan></text><text style="text-align:center;line-height:125%" x="563.253" y="644.908" font-size="27.665" font-weight="400" letter-spacing="0" word-spacing="0" text-anchor="middle" fill="red" font-family="Sans"><tspan x="563.253" y="644.908">&quot;linkage&quot;</tspan></text></svg>