<svg xmlns="http://www.w3.org/2000/svg" width="744.094" height="1052.362"><defs><marker orient="auto" refY="0" refX="0" id="a" overflow="visible"><path d="M-10 0l-4 4L0 0l-14-4 4 4z" fill-rule="evenodd" stroke="#000" stroke-width=".8pt"/></marker><marker orient="auto" refY="0" refX="0" id="b" overflow="visible"><path d="M-10 0l-4 4L0 0l-14-4 4 4z" fill-rule="evenodd" stroke="#000" stroke-width=".8pt"/></marker></defs><g transform="translate(-57.579 340.421)" fill="none" stroke="#000"><rect rx="0" ry="0" y="31.673" x="69.811" height="70.379" width="60.379"/><path d="M108.622 31.756h21.213v19.193h-21.213zM75.004 60.14h48.74M75.13 69.989h48.74M75.13 79.08h48.74m-48.74 8.839h48.74"/></g><text style="line-height:125%" x="74.172" y="116.458" transform="scale(.9254 1.08062)" font-size="24.462" font-weight="400" letter-spacing="0" word-spacing="0" font-family="Sans"><tspan x="74.172" y="116.458">glCreateShader(GL_VERTEX_SHADER)</tspan></text><path d="M279.307 148.55v98.636" fill="none" stroke="#000" stroke-width="2.027" marker-end="url(#a)"/><text style="line-height:125%" x="210.112" y="297.778" font-size="40" font-weight="400" letter-spacing="0" word-spacing="0" font-family="Sans"><tspan x="210.112" y="297.778">GLuint</tspan></text><text style="line-height:125%" x="91.856" y="444.708" transform="scale(1.01235 .9878)" font-size="20.417" font-weight="400" letter-spacing="0" word-spacing="0" font-family="Sans"><tspan x="91.856" y="444.708">glShaderSource</tspan></text><path d="M276.782 318.161v245.806" fill="none" stroke="#000" stroke-width="3.2" marker-end="url(#a)"/><path d="M85.863 409.905h183.66" fill="none" stroke="#000" stroke-width="1.755" marker-end="url(#b)"/><text style="text-align:center;line-height:125%" x="69.163" y="330.577" font-size="20.68" font-weight="400" letter-spacing="0" word-spacing="0" text-anchor="middle" font-family="Sans"><tspan x="72.455" y="330.577">code source </tspan><tspan x="69.163" y="356.428">GLSL</tspan></text><text style="line-height:125%" x="195.615" y="555.863" transform="scale(.9254 1.08062)" font-size="24.462" font-weight="400" letter-spacing="0" word-spacing="0" font-family="Sans"><tspan x="195.615" y="555.863">glCompileShader</tspan></text><path d="M275.942 624.705v144.167" fill="none" stroke="#000" stroke-width="2.963" marker-end="url(#a)"/><text style="line-height:125%" x="180.796" y="752.509" transform="scale(.9254 1.08062)" font-size="24.462" font-weight="400" letter-spacing="0" word-spacing="0" font-family="Sans"><tspan x="180.796" y="752.509">glGetShaderInfoLog</tspan></text><text style="text-align:center;line-height:125%" x="547.26" y="271.505" font-size="28.021" font-weight="400" letter-spacing="0" word-spacing="0" text-anchor="middle" fill="red" font-family="Sans"><tspan x="551.721" y="271.505">identifiant OpenGL </tspan><tspan x="547.26" y="306.532">du shader</tspan></text><text style="line-height:125%" x="378.612" y="423.134" font-size="24.965" font-weight="400" letter-spacing="0" word-spacing="0" fill="red" font-family="Sans"><tspan x="378.612" y="423.134">spécification du code source</tspan></text><text style="line-height:125%" x="405.752" y="601.554" font-size="27.665" font-weight="400" letter-spacing="0" word-spacing="0" fill="red" font-family="Sans"><tspan x="405.752" y="601.554">compilation du shader</tspan></text><text style="line-height:125%" x="422.227" y="813.517" font-size="27.665" font-weight="400" letter-spacing="0" word-spacing="0" fill="red" font-family="Sans"><tspan x="422.227" y="813.517">vérification d&apos;erreurs</tspan></text></svg>