<svg xmlns="http://www.w3.org/2000/svg" width="300" height="400"><defs><marker orient="auto" refY="0" refX="0" id="a" overflow="visible"><path d="M10 0l4-4L0 0l14 4-4-4z" fill-rule="evenodd" stroke="#000" stroke-width=".8pt"/></marker><marker orient="auto" refY="0" refX="0" id="b" overflow="visible"><path d="M-10 0l-4 4L0 0l-14-4 4 4z" fill-rule="evenodd" stroke="#000" stroke-width=".8pt"/></marker></defs><g fill="none" stroke-width=".5" fill-rule="evenodd"><path d="M131.917 239.685l34.586 8.647v41.56l-34.586-8.647z" fill="#e9e9ff"/><path d="M99.43 247.807v41.56l32.487-8.122v-41.56z" fill="#353564"/><path d="M99.43 289.367l34.587 8.646 32.486-8.121-34.586-8.647z" fill="#afafde"/><path d="M99.43 247.807l34.587 8.646 32.486-8.121-34.586-8.647z" fill="#4d4d9f"/><path d="M134.017 256.453v41.56l32.486-8.121v-41.56z" fill="#d7d7ff"/><path d="M99.43 247.807l34.587 8.646v41.56l-34.586-8.646z" fill="#8686bf"/></g><path d="M132.857 817.362v114.286l-118.32 31.704" fill="none" stroke="#000" marker-start="url(#a)" marker-end="url(#b)" transform="translate(0 -652.362)"/><path d="M132.143 931.648l113.546 30.425" fill="none" stroke="#000" marker-end="url(#b)" transform="translate(0 -652.362)"/><text style="line-height:125%" x="256.116" y="976.591" font-size="25" font-weight="400" letter-spacing="0" word-spacing="0" font-family="Sans" transform="translate(0 -652.362)"><tspan x="256.116" y="976.591">x</tspan></text><text style="line-height:125%" x="146.742" y="820.792" font-size="25" font-weight="400" letter-spacing="0" word-spacing="0" font-family="Sans" transform="translate(0 -652.362)"><tspan x="146.742" y="820.792">y</tspan></text><text style="line-height:125%" x="12.392" y="987.467" font-size="25" font-weight="400" letter-spacing="0" word-spacing="0" font-family="Sans" transform="translate(0 -652.362)"><tspan x="12.392" y="987.467">z</tspan></text><path d="M132.878 279.782L58.126 94.924v280.822z" fill="none" stroke="#000" stroke-dasharray="1,2"/><path d="M107.143 698.79l-49.286 48.572 52.857 33.572" fill="none" stroke="#000" marker-start="url(#a)" marker-end="url(#b)" transform="translate(0 -652.362)"/><path d="M58.571 747.362L35 696.648" fill="none" stroke="#000" marker-end="url(#b)" transform="translate(0 -652.362)"/><text style="line-height:125%" x="12.857" y="680.219" font-size="25" font-weight="400" letter-spacing="0" word-spacing="0" font-family="Sans" transform="translate(0 -652.362)"><tspan x="12.857" y="680.219">Camera</tspan></text><path d="M61.157 53.507l51.936 31.02-48.906 49.288-48.992-35.86z" fill="none" stroke="#000"/><path d="M104.286 967.362s-29.643-51.786 2.143-99.286" fill="none" stroke="red" marker-end="url(#b)" transform="translate(0 -652.362)"/><path d="M65 949.148s1.786 24.286 39.286 18.571" fill="none" stroke="#00f" marker-end="url(#b)" transform="translate(0 -652.362)"/><text style="line-height:125%" x="30.714" y="896.648" font-size="10" font-weight="400" letter-spacing="0" word-spacing="0" fill="red" font-family="Sans" transform="translate(0 -652.362)"><tspan x="30.714" y="896.648">m_fAngleX</tspan></text><text style="line-height:125%" x="64.346" y="987.839" font-size="10" font-weight="400" letter-spacing="0" word-spacing="0" fill="#00f" font-family="Sans" transform="translate(0 -652.362)"><tspan x="64.346" y="987.839">m_fAngleY</tspan></text><path d="M57.857 95l75 184.286" fill="green" stroke="green"/><text style="line-height:125%" x="83.885" y="797.288" font-size="10" font-weight="400" letter-spacing="0" word-spacing="0" fill="green" font-family="Sans" transform="translate(0 -652.362)"><tspan x="83.885" y="797.288">m_fDistance</tspan></text></svg>