<svg xmlns="http://www.w3.org/2000/svg" width="1052.362" height="744.094"><defs><marker orient="auto" refY="0" refX="0" id="b" overflow="visible"><path d="M-10 0l-4 4L0 0l-14-4 4 4z" fill-rule="evenodd" stroke="#000" stroke-width=".8pt"/></marker><marker orient="auto" refY="0" refX="0" id="a" overflow="visible"><path d="M10 0l4-4L0 0l14 4-4-4z" fill-rule="evenodd" stroke="#000" stroke-width=".8pt"/></marker><marker orient="auto" refY="0" refX="0" id="c" overflow="visible"><path d="M-10 0l-4 4L0 0l-14-4 4 4z" fill-rule="evenodd" stroke="#000" stroke-width=".8pt"/></marker></defs><path d="M75.761 316.971v101.015h102.48" fill="none" stroke="gray" stroke-width=".974" marker-start="url(#a)" marker-end="url(#b)" transform="translate(0 -308.268)"/><path fill="none" stroke="#000" stroke-width=".937" d="M25.867 56.69h103.917v99.495H25.867z"/><path d="M75.723 508.91v101.015h102.48" fill="none" stroke="gray" stroke-width=".974" marker-start="url(#a)" marker-end="url(#b)" transform="translate(0 -308.268)"/><path fill="none" stroke="#000" stroke-width=".937" d="M121.794 248.63h103.917v99.494H121.794z"/><path d="M175.972 509.983v101.015h102.48M75.966 317.044v101.015h102.48" fill="none" stroke="#faa" stroke-width=".974" marker-start="url(#a)" marker-end="url(#b)" transform="translate(0 -308.268)"/><path d="M72.31 695.788v101.015h102.48" fill="none" stroke="gray" stroke-width=".974" marker-start="url(#a)" marker-end="url(#b)" transform="translate(0 -308.268)"/><path fill="none" stroke="#000" stroke-width=".937" d="M99.508 488.497l73.48-73.48 70.354 70.353-73.48 73.48z"/><path d="M104.644 725.282l71.428 71.429 72.464-72.465" fill="none" stroke="#faa" stroke-width=".974" marker-start="url(#a)" marker-end="url(#b)" transform="translate(0 -308.268)"/><path d="M70.408 887.914V988.93h102.48" fill="none" stroke="gray" stroke-width=".974" marker-start="url(#a)" marker-end="url(#b)" transform="translate(0 -308.268)"/><path fill="none" stroke="#000" stroke-width=".609" d="M121.685 679.98l47.746-47.747 45.714 45.715-47.746 47.746z"/><path d="M125.023 941.799l46.412 46.413 47.086-47.086" fill="none" stroke="#faa" stroke-width=".633" marker-start="url(#a)" marker-end="url(#b)" transform="translate(0 -308.268)"/><text style="line-height:125%" x="481.843" y="426.068" font-size="40" font-weight="400" letter-spacing="0" word-spacing="0" font-family="Sans" transform="translate(0 -308.268)"><tspan x="481.843" y="426.068">Id</tspan></text><text style="line-height:125%" x="481.607" y="596.543" font-size="40" font-weight="400" letter-spacing="0" word-spacing="0" font-family="Sans" transform="translate(0 -308.268)"><tspan x="481.607" y="596.543">Id x T<tspan font-size="65.001%" baseline-shift="sub">(0.5, 0)</tspan></tspan></text><text style="line-height:125%" x="484.278" y="775.97" font-size="40" font-weight="400" letter-spacing="0" word-spacing="0" font-family="Sans" transform="translate(0 -308.268)"><tspan x="484.278" y="775.97">Id x T<tspan font-size="65.001%" baseline-shift="sub">(0.5, 0)</tspan> x R<tspan font-size="65.001%" baseline-shift="sub">45°</tspan></tspan></text><text style="line-height:125%" x="478.995" y="971.94" font-size="40" font-weight="400" letter-spacing="0" word-spacing="0" font-family="Sans" transform="translate(0 -308.268)"><tspan x="478.995" y="971.94">Id x T<tspan font-size="65.001%" baseline-shift="sub">(0.5, 0)</tspan> x R<tspan font-size="65.001%" baseline-shift="sub">45°</tspan> x S<tspan font-size="65.001%" baseline-shift="sub">0.5</tspan></tspan></text><path d="M317.188 133.962v57.579" fill="none" stroke="#000" stroke-width="2" marker-end="url(#c)"/><path d="M312.137 653.352v61.62" fill="none" stroke="#000" stroke-width="2" marker-end="url(#c)" transform="translate(0 -308.268)"/><path d="M310.117 541.054v56.568" fill="none" stroke="#000" stroke-width="2" marker-end="url(#c)"/></svg>