<svg xmlns="http://www.w3.org/2000/svg" width="800" height="600"><defs><marker orient="auto" refY="0" refX="0" id="b" overflow="visible"><path d="M-10 0l-4 4L0 0l-14-4 4 4z" fill-rule="evenodd" stroke="#000" stroke-width=".8pt"/></marker><marker orient="auto" refY="0" refX="0" id="a" overflow="visible"><path d="M10 0l4-4L0 0l14 4-4-4z" fill-rule="evenodd" stroke="#000" stroke-width=".8pt"/></marker></defs><text style="line-height:125%" x="142.431" y="598.804" font-size="40" font-weight="400" letter-spacing="0" word-spacing="0" font-family="Sans" transform="translate(0 -452.362)"><tspan x="142.431" y="598.804">-0.5 -0.5 1.0 0.0 0.0</tspan></text><path fill="none" stroke="#000" d="M118.188 100.985h549.523v65.66H118.188zm117.178-1.011v65.66m117.177-65.154v65.66m104.046-65.66v65.66m104.046-65.66v65.66"/><text style="line-height:125%" x="173.746" y="531.164" font-size="40" font-weight="400" letter-spacing="0" word-spacing="0" fill="red" font-family="Sans" transform="translate(0 -452.362)"><tspan x="173.746" y="531.164" font-size="30">position</tspan></text><text style="line-height:125%" x="450.64" y="534.39" font-size="40" font-weight="400" letter-spacing="0" word-spacing="0" fill="#00f" font-family="Sans" transform="translate(0 -452.362)"><tspan x="450.64" y="534.39" font-size="30">couleur</tspan></text><path d="M119.198 702.85h547.503" fill="none" stroke="#000" marker-start="url(#a)" marker-end="url(#b)" transform="translate(0 -452.362)"/><text style="line-height:125%" x="200.01" y="745.276" font-size="40" font-weight="400" letter-spacing="0" word-spacing="0" font-family="Sans" transform="translate(0 -452.362)"><tspan x="200.01" y="745.276" font-size="30">stride = 5 x sizeof(GLfloat)</tspan></text><path d="M116.875 638.2h32.93" fill="red" stroke="red" marker-start="url(#a)" marker-end="url(#b)" transform="translate(0 -452.362)"/><path d="M118.197 665.474h243.428" fill="none" stroke="#00f" marker-start="url(#a)" marker-end="url(#b)" transform="translate(0 -452.362)"/><path d="M114.147 185.837h-67.68v256.58" fill="none" stroke="red"/><text style="line-height:125%" x="10.76" y="926.421" font-size="40" font-weight="400" letter-spacing="0" word-spacing="0" fill="red" font-family="Sans" transform="translate(0 -452.362)"><tspan x="10.76" y="926.421" font-size="25">pointer = 0 x sizeof(GLfloat)</tspan></text><path d="M552.412 212.97h200.293v228.577" fill="none" stroke="#00f" stroke-width=".717"/><text style="line-height:125%" x="433.817" y="925.919" font-size="40" font-weight="400" letter-spacing="0" word-spacing="0" fill="#00f" font-family="Sans" transform="translate(0 -452.362)"><tspan x="433.817" y="925.919" font-size="25">pointer = 2 x sizeof(GLfloat)</tspan></text><text style="line-height:125%" x="54.886" y="872.75" font-size="40" font-weight="400" letter-spacing="0" word-spacing="0" fill="red" font-family="Sans" transform="translate(0 -452.362)"><tspan x="54.886" y="872.75" font-size="30">position</tspan></text><text style="line-height:125%" x="455.78" y="871.872" font-size="40" font-weight="400" letter-spacing="0" word-spacing="0" fill="#00f" font-family="Sans" transform="translate(0 -452.362)"><tspan x="455.78" y="871.872" font-size="30">couleur</tspan></text><text style="line-height:125%" x="14.604" y="999.66" font-size="40" font-weight="400" letter-spacing="0" word-spacing="0" fill="red" font-family="Sans" transform="translate(0 -452.362)"><tspan x="14.604" y="999.66" font-size="25">size = 2</tspan></text><text style="line-height:125%" x="15.605" y="1029.357" font-size="40" font-weight="400" letter-spacing="0" word-spacing="0" fill="red" font-family="Sans" transform="translate(0 -452.362)"><tspan x="15.605" y="1029.357" font-size="25">type = GL_FLOAT</tspan></text><text style="line-height:125%" x="457.674" y="1003.657" font-size="40" font-weight="400" letter-spacing="0" word-spacing="0" fill="#00f" font-family="Sans" transform="translate(0 -452.362)"><tspan x="457.674" y="1003.657" font-size="25">size = 3</tspan></text><text style="line-height:125%" x="458.676" y="1033.354" font-size="40" font-weight="400" letter-spacing="0" word-spacing="0" fill="#00f" font-family="Sans" transform="translate(0 -452.362)"><tspan x="458.676" y="1033.354" font-size="25">type = GL_FLOAT</tspan></text><text style="line-height:125%" x="9.091" y="487.687" font-size="40" font-weight="400" letter-spacing="0" word-spacing="0" font-family="Sans" transform="translate(0 -452.362)"><tspan x="9.091" y="487.687" font-size="30">VAO : stocke le format d&apos;un vertex</tspan></text><path fill="none" stroke="red" stroke-width="2" d="M93.944 87.853h255.569v87.883H93.944z"/><path fill="none" stroke="#00f" stroke-width="1.989" d="M357.588 87.847h320.23v87.895h-320.23z"/></svg>