<svg xmlns="http://www.w3.org/2000/svg" width="800" height="600"><defs><marker orient="auto" refY="0" refX="0" id="b" overflow="visible"><path d="M10 0l4-4L0 0l14 4-4-4z" fill-rule="evenodd" stroke="#000" stroke-width=".8pt"/></marker><marker orient="auto" refY="0" refX="0" id="a" overflow="visible"><path d="M-10 0l-4 4L0 0l-14-4 4 4z" fill-rule="evenodd" stroke="#000" stroke-width=".8pt"/></marker></defs><path fill="none" stroke="#000" stroke-width="1.974" d="M49.987 197.13h682.169v87.883H49.987z"/><text style="line-height:125%" x="63.571" y="708.076" font-size="40" font-weight="400" letter-spacing="0" word-spacing="0" font-family="Sans" transform="translate(0 -452.362)"><tspan x="63.571" y="708.076">-0.5</tspan></text><path d="M164.571 196.429V285m114.858-87.143v88.572m112.285-88.572v88.572m112.857-89.286v88.571m113.286-88.571v88.571" fill="none" stroke="#000"/><text style="line-height:125%" x="179.576" y="709.066" font-size="40" font-weight="400" letter-spacing="0" word-spacing="0" font-family="Sans" transform="translate(0 -452.362)"><tspan x="179.576" y="709.066">-0.5</tspan></text><text style="line-height:125%" x="303.29" y="709.066" font-size="40" font-weight="400" letter-spacing="0" word-spacing="0" font-family="Sans" transform="translate(0 -452.362)"><tspan x="303.29" y="709.066">0.5</tspan></text><text style="line-height:125%" x="408.147" y="709.066" font-size="40" font-weight="400" letter-spacing="0" word-spacing="0" font-family="Sans" transform="translate(0 -452.362)"><tspan x="408.147" y="709.066">-0.5</tspan></text><text style="line-height:125%" x="641.461" y="707.637" font-size="40" font-weight="400" letter-spacing="0" word-spacing="0" font-family="Sans" transform="translate(0 -452.362)"><tspan x="641.461" y="707.637">0.5</tspan></text><text style="line-height:125%" x="530.032" y="709.066" font-size="40" font-weight="400" letter-spacing="0" word-spacing="0" font-family="Sans" transform="translate(0 -452.362)"><tspan x="530.032" y="709.066">0.0</tspan></text><text style="line-height:125%" x="7.857" y="603.791" font-size="40" font-weight="400" letter-spacing="0" word-spacing="0" font-family="Sans" transform="translate(0 -452.362)"><tspan x="7.857" y="603.791">les données:</tspan></text><path fill="none" stroke="red" stroke-width="2" d="M27.143 173.571h258.571v130H27.143z"/><text style="line-height:125%" x="444.717" y="520.219" font-size="40" font-weight="400" letter-spacing="0" word-spacing="0" font-family="Sans" transform="translate(0 -452.362)"><tspan x="444.717" y="520.219" style="text-align:center" font-size="25" text-anchor="middle" fill="red">Une position = 2 flottants</tspan><tspan x="444.717" y="551.469" style="text-align:center;-inkscape-font-specification:Sans Bold" font-size="25" font-weight="700" text-anchor="middle" fill="red">size = 2</tspan></text><path d="M360 99.286l-82.857 73.571" fill="red" stroke="red" stroke-width="2" marker-end="url(#a)"/><path d="M63.571 780.934H290" fill="green" stroke="green" stroke-width="2" marker-end="url(#a)" transform="translate(0 -452.362)"/><text style="line-height:125%" x="338.175" y="817.362" font-size="40" font-weight="400" letter-spacing="0" word-spacing="0" font-family="Sans" transform="translate(0 -452.362)"><tspan x="342.154" y="817.362" style="text-align:center" font-size="25" text-anchor="middle" fill="green">on avance de deux flottant pour lire </tspan><tspan x="338.175" y="848.612" style="text-align:center" font-size="25" text-anchor="middle" fill="green">la prochaine position</tspan><tspan x="338.175" y="879.862" style="text-align:center;-inkscape-font-specification:Sans Bold" font-size="25" font-weight="700" text-anchor="middle" fill="green">stride = 2 * sizeof(GLfloat)</tspan></text><path d="M50 285.714v226.429" fill="#00f" stroke="#00f" stroke-width="2" marker-start="url(#b)"/><text style="line-height:125%" x="356.453" y="993.961" font-size="40" font-weight="400" letter-spacing="0" word-spacing="0" font-family="Sans" transform="translate(0 -452.362)"><tspan x="356.453" y="993.961" style="text-align:center" font-size="25" text-anchor="middle" fill="#00f">la première position est situé au début du tableau</tspan><tspan x="356.453" y="1025.211" style="text-align:center;-inkscape-font-specification:Sans Bold" font-size="25" font-weight="700" text-anchor="middle" fill="#00f">pointer = 0 * sizeof(GLfloat)</tspan></text></svg>