<svg xmlns="http://www.w3.org/2000/svg" width="800" height="600"><path d="M240.493 58L98 310l281-2.008z" fill="none" stroke="#000"/><text style="line-height:125%" x="29" y="802.362" font-size="40" font-weight="400" letter-spacing="0" word-spacing="0" fill="red" font-family="Sans" transform="translate(0 -452.362)"><tspan x="29" y="802.362" font-size="30">A (-0.5, -0.5)</tspan></text><text style="line-height:125%" x="348" y="802.362" font-size="40" font-weight="400" letter-spacing="0" word-spacing="0" fill="#0f0" font-family="Sans" transform="translate(0 -452.362)"><tspan x="348" y="802.362" font-size="30">B (0.5, -0.5)</tspan></text><text style="line-height:125%" x="162" y="501.362" font-size="40" font-weight="400" letter-spacing="0" word-spacing="0" fill="#00f" font-family="Sans" transform="translate(0 -452.362)"><tspan x="162" y="501.362" font-size="30">C (0.0, 0.5)</tspan></text><text style="line-height:125%" x="11" y="989.362" font-size="40" font-weight="400" letter-spacing="0" word-spacing="0" font-family="Sans" transform="translate(0 -452.362)"><tspan x="11" y="989.362" font-size="30">VBO:</tspan></text><path fill="none" stroke="#000" stroke-width="1.023" d="M92.012 500.012h697.976v49.977H92.012z"/><text style="line-height:125%" x="100" y="986.362" font-size="40" font-weight="400" letter-spacing="0" word-spacing="0" font-family="Sans" transform="translate(0 -452.362)"><tspan x="100" y="986.362" font-size="27"><tspan fill="red">-0.5 -0.5 1 0 0</tspan><tspan fill="#0f0"> 0.5 -0.5 0 1 0</tspan><tspan fill="#00f"> 0.0 0.5 0 0 1</tspan></tspan></text><path d="M160 499v51m70-51.5v51m36-49v51m34-51v51m34-51v51m60-51v51m70-53v51m34-51v51m34-51v51m36-51v51m60-51v51m60-51v51m34-49v51m34-51v51" fill="none" stroke="#000"/><text style="line-height:125%" x="120" y="1023.362" font-size="40" font-weight="400" letter-spacing="0" word-spacing="0" fill="red" font-family="Sans" transform="translate(0 -452.362)"><tspan x="120" y="1023.362" font-size="20">position</tspan></text><text style="line-height:125%" x="245.342" y="1024.88" font-size="40" font-weight="400" letter-spacing="0" word-spacing="0" fill="red" font-family="Sans" transform="translate(0 -452.362)"><tspan x="245.342" y="1024.88" font-size="20">couleur</tspan></text><text style="line-height:125%" x="359.342" y="1024.88" font-size="40" font-weight="400" letter-spacing="0" word-spacing="0" fill="#0f0" font-family="Sans" transform="translate(0 -452.362)"><tspan x="359.342" y="1024.88" font-size="20">position</tspan></text><text style="line-height:125%" x="593.342" y="1025.88" font-size="40" font-weight="400" letter-spacing="0" word-spacing="0" fill="#00f" font-family="Sans" transform="translate(0 -452.362)"><tspan x="593.342" y="1025.88" font-size="20">position</tspan></text><text style="line-height:125%" x="482.095" y="1025.818" font-size="40" font-weight="400" letter-spacing="0" word-spacing="0" fill="#0f0" font-family="Sans" transform="translate(0 -452.362)"><tspan x="482.095" y="1025.818" font-size="20">couleur</tspan></text><text style="line-height:125%" x="703.095" y="1025.818" font-size="40" font-weight="400" letter-spacing="0" word-spacing="0" fill="#00f" font-family="Sans" transform="translate(0 -452.362)"><tspan x="703.095" y="1025.818" font-size="20">couleur</tspan></text></svg>