<svg xmlns="http://www.w3.org/2000/svg" width="629.996" height="123.792"><defs><marker orient="auto" refY="0" refX="0" id="a" overflow="visible"><path d="M-10 0l-4 4L0 0l-14-4 4 4z" fill-rule="evenodd" stroke="#000" stroke-width=".8pt"/></marker></defs><path fill="#f2f2f2" stroke="green" stroke-width="1.511" d="M171.672.755h250.901v110.851h-250.9z"/><text style="line-height:125%" x="197.894" y="222.284" font-size="40" font-weight="400" letter-spacing="0" word-spacing="0" font-family="Sans" transform="translate(-5.325 -156.745)"><tspan x="197.894" y="222.284" font-size="30">Vertex Shader</tspan></text><path d="M132.91 193.613h42.488" fill="none" stroke="#000" stroke-width=".75" marker-end="url(#a)" transform="translate(-5.325 -156.745)"/><text style="line-height:125%" x="67.356" y="197.356" font-size="40" font-weight="400" letter-spacing="0" word-spacing="0" font-family="Sans" transform="translate(-5.325 -156.745)"><tspan x="67.356" y="197.356" style="text-align:center" font-size="15" text-anchor="middle">aVertexPosition</tspan></text><path d="M427.649 169.62H482.8" fill="none" stroke="#000" stroke-width=".855" marker-end="url(#a)" transform="translate(-5.325 -156.745)"/><text style="line-height:125%" x="541.991" y="173.772" font-size="40" font-weight="400" letter-spacing="0" word-spacing="0" font-family="Sans" transform="translate(-5.325 -156.745)"><tspan x="541.991" y="173.772" style="text-align:center" font-size="20" text-anchor="middle">gl_Position</tspan></text><text style="text-align:center;line-height:125%" x="535.909" y="192.543" font-size="40" font-weight="400" letter-spacing="0" word-spacing="0" text-anchor="middle" font-family="Sans" transform="translate(-5.325 -156.745)"><tspan x="537.501" y="192.543" style="text-align:center" font-size="10">position projetée utilisée </tspan><tspan x="535.909" y="205.043" style="text-align:center" font-size="10">par OpenGL</tspan></text><path d="M428.415 227.097h55.153" fill="none" stroke="#000" stroke-width=".855" marker-end="url(#a)" transform="translate(-5.325 -156.745)"/><text style="line-height:125%" x="543.524" y="232.837" font-size="40" font-weight="400" letter-spacing="0" word-spacing="0" font-family="Sans" transform="translate(-5.325 -156.745)"><tspan x="543.524" y="232.837" style="text-align:center" font-size="20" text-anchor="middle">vFragColor</tspan></text><text style="text-align:center;line-height:125%" x="541.371" y="249.699" font-size="40" font-weight="400" letter-spacing="0" word-spacing="0" text-anchor="middle" font-family="Sans" transform="translate(-5.325 -156.745)"><tspan x="541.371" y="249.699" style="text-align:center" font-size="10">interpolée par OpenGL puis envoyée</tspan><tspan x="541.371" y="262.199" style="text-align:center" font-size="10">au fragment shader</tspan></text><path d="M132.97 230.363h42.487" fill="none" stroke="#000" stroke-width=".75" marker-end="url(#a)" transform="translate(-5.325 -156.745)"/><text style="line-height:125%" x="67.415" y="234.106" font-size="40" font-weight="400" letter-spacing="0" word-spacing="0" font-family="Sans" transform="translate(-5.325 -156.745)"><tspan x="67.415" y="234.106" style="text-align:center" font-size="15" text-anchor="middle">aVertexColor</tspan></text></svg>